#N canvas 145 23 1265 831 10;
#X obj 216 582 *~;
#X obj 317 701 hsl 128 15 0 1 0 0 empty empty empty -2 -8 0 10 -262144
-1 -1 6350 1;
#X obj 383 959 *~;
#X obj 440 951 *~;
#X obj 665 823 line~;
#X obj 382 936 *~;
#X obj 442 931 *~;
#X obj 314 724 * 220.5;
#X obj 312 777 +~;
#X obj 311 808 expr~ 220.5-$v1;
#X obj 179 17 float \$1;
#X obj 178 -9 loadbang;
#X floatatom 179 39 5 0 0 0 - - -;
#X floatatom 242 89 5 0 0 0 - - -;
#X obj 361 -18 t b f;
#X obj 213 608 abs~;
#X floatatom 446 675 5 0 0 0 - - -;
#X obj 313 747 sig~;
#X obj 453 733 *;
#X obj 446 653 - 100;
#X obj 444 625 random 200;
#X obj 457 358 tgl 15 0 empty empty empty 17 7 0 10 -262144 -1 -1 1
1;
#X obj 207 537 *~;
#X obj 639 236 hsl 128 15 -1 1 0 0 empty empty empty -2 -8 0 10 -262144
-1 -1 6310 1;
#X obj 608 82 random 1000;
#X floatatom 609 152 5 0 0 0 - - -;
#X obj 610 109 / 1000;
#X obj 609 130 - 0.5;
#X floatatom 626 193 5 0 0 0 - - -;
#X obj 609 214 *;
#X obj 597 285 +;
#X obj 612 256 t b f;
#X obj 605 437 *;
#X obj 836 236 hsl 128 15 -1 1 0 0 empty empty empty -2 -8 0 10 -262144
-1 -1 6350 1;
#X obj 803 84 random 1000;
#X floatatom 804 154 5 0 0 0 - - -;
#X obj 805 111 / 1000;
#X obj 804 132 - 0.5;
#X floatatom 821 195 5 0 0 0 - - -;
#X obj 804 216 *;
#X obj 842 353 +;
#X obj 807 258 t b f;
#X obj 400 254 sel 0 1;
#X obj 150 -9 bng 15 250 50 0 empty empty empty 17 7 0 10 -262144 -1
-1;
#X obj 453 431 s;
#X obj 450 391 spigot;
#X obj 436 1007 *~;
#X obj 639 1006 *~;
#X obj 665 969 line~;
#X obj 664 914 tgl 15 0 empty on_off empty 17 7 0 10 -262144 -1 -1
0 1;
#X obj 597 304 abs;
#X obj 105 821 *~;
#X obj 496 377 loadbang;
#X obj 162 820 *~;
#X obj 169 790 *~;
#X obj 194 709 sel 1 2;
#X msg 192 739 1;
#X msg 227 739 0;
#X obj 591 333 clip 0 1;
#X obj 644 418 -;
#X obj 714 374 t b f;
#X floatatom 387 72 5 0 0 0 - - -;
#X obj 381 100 > \$1;
#X obj 365 6 *;
#X floatatom 250 38 5 0 0 0 - - -;
#X obj 250 15 expr 1 / $f1;
#X obj 245 66 *;
#X obj 976 234 * 4;
#X obj 494 1017 r singlegrainvolume;
#X obj 131 659 tabread4~ poly_grain-R;
#X obj 103 627 tabread4~ poly_grain-L;
#X obj 12 592 tabread~ crown;
#X obj 310 846 tabread~ hann;
#X obj 441 846 tabread~ hann;
#X obj 193 688 r num_channels;
#X obj 403 213 r reverse;
#X obj 823 174 r random_pitch;
#X obj 626 169 r offset_random;
#X obj 1011 173 r pitch_range;
#X obj 595 11 r sample_offset;
#X obj 354 -55 r numgrains;
#X obj 461 -45 r grains_playing;
#X obj 351 524 r grainsize;
#X obj 314 664 r global_pan;
#X obj 467 702 r random_panning;
#X obj 438 1095 throw~ grainoutL;
#X obj 632 1092 throw~ grainoutR;
#X obj 602 354 r samplelength;
#X obj 664 882 inlet;
#X obj 437 1047 *~ 0.8;
#X obj 637 1036 *~ 0.8;
#X obj 1000 196 t b f;
#X obj 499 405 symbol \$1-loc;
#X obj 366 25 change;
#X obj 739 320 r grainsize;
#X text 698 916 envelope for master on/off;
#X text 685 699 envelope for grains switching on/off;
#X obj 843 390 s \$0-grain_pitch;
#X obj 353 472 r \$0-grain_pitch;
#X obj 384 190 s \$0-thisGrain_on;
#X obj 460 322 r \$0-thisGrain_on;
#X obj 664 698 tgl 15 0 empty empty empty 17 7 0 10 -262144 -1 -1 1
1;
#X obj 664 568 r \$0-thisGrain_on;
#N canvas 0 23 1088 686 simple_env 0;
#X obj 279 105 sel 1 0;
#X obj 229 177 * 2000;
#X obj 309 170 * 5000;
#X obj 214 219 f;
#X obj 285 219 f;
#X msg 168 269 1 \$1;
#X msg 290 264 0 \$1;
#X obj 229 136 r attack;
#X obj 318 136 r release;
#X obj 280 385 outlet;
#X obj 283 60 inlet;
#X connect 0 0 3 0;
#X connect 0 1 4 0;
#X connect 1 0 3 1;
#X connect 2 0 4 1;
#X connect 3 0 5 0;
#X connect 4 0 6 0;
#X connect 5 0 9 0;
#X connect 6 0 9 0;
#X connect 7 0 1 0;
#X connect 8 0 2 0;
#X connect 10 0 0 0;
#X restore 664 798 pd simple_env;
#N canvas 550 23 1088 686 simple_env 0;
#X obj 279 105 sel 1 0;
#X obj 229 177 * 2000;
#X obj 309 170 * 5000;
#X obj 214 219 f;
#X obj 285 219 f;
#X msg 168 269 1 \$1;
#X msg 290 264 0 \$1;
#X obj 229 136 r attack;
#X obj 318 136 r release;
#X obj 280 385 outlet;
#X obj 283 60 inlet;
#X connect 0 0 3 0;
#X connect 0 1 4 0;
#X connect 1 0 3 1;
#X connect 2 0 4 1;
#X connect 3 0 5 0;
#X connect 4 0 6 0;
#X connect 5 0 9 0;
#X connect 6 0 9 0;
#X connect 7 0 1 0;
#X connect 8 0 2 0;
#X connect 10 0 0 0;
#X restore 664 945 pd simple_env;
#X text 849 30 pitch controls;
#X text 621 29 location controls;
#X obj 376 48 + 0;
#X obj 962 137 r grain_pitch;
#X obj 920 742 pipe;
#X obj 941 666 r release;
#X obj 921 798 switch~;
#X obj 919 777 tgl 15 0 empty empty empty 17 7 0 10 -262144 -1 -1 1
1;
#X obj 942 701 * 5000;
#X obj 834 727 sel 0 1;
#X msg 833 764 0;
#X msg 868 767 1;
#X obj 382 147 change;
#X floatatom 680 490 15 0 0 0 - - -;
#X obj 570 535 i;
#X msg 376 414 1 \$1;
#X obj 143 249 s \$0-grainbang;
#X obj 142 226 bng 15 250 50 0 empty empty empty 17 7 0 10 -262144
-1 -1;
#X obj 284 192 r \$0-grainbang;
#X obj 571 492 r \$0-grainbang;
#X obj 614 54 r \$0-grainbang;
#X obj 805 51 r \$0-grainbang;
#X obj 386 325 r grainsize;
#X obj 370 380 f;
#X obj 342 325 t b b;
#X obj 386 346 / 44.1;
#X obj 252 447 line~;
#X obj 444 592 r \$0-grainbang;
#X obj 108 152 r mastergrainbang;
#X obj 139 201 pipe;
#X obj 719 347 f;
#X obj 685 282 r \$0-grainbang;
#X obj 253 561 f;
#X obj 254 523 r \$0-grainbang;
#X obj 262 492 f;
#X obj 261 471 r \$0-grainbang;
#X obj 12 566 *~ 441;
#X obj 279 140 t b f;
#X msg 344 414 0;
#X obj 278 89 r grain_density;
#X obj 266 326 r grainsize;
#X obj 250 381 f;
#X obj 222 326 t b b;
#X obj 266 347 / 44.1;
#X msg 256 415 0 \$1;
#X msg 224 415 1;
#X obj 284 221 bng 15 250 50 0 empty empty empty 17 7 0 10 -262144
-1 -1;
#X msg 395 275 1;
#X msg 427 275 0;
#X obj 340 300 spigot;
#X obj 250 300 spigot;
#X msg 463 276 0;
#X msg 497 276 1;
#X obj 515 172 random 2;
#X floatatom 515 193 5 0 0 0 - - -;
#X obj 517 137 bng 15 250 50 0 empty empty empty 17 7 0 10 -262144
-1 -1;
#X obj 482 67 r reverse_random;
#X obj 501 104 spigot;
#X obj 443 39 r \$0-grainbang;
#X obj 483 231 i;
#X obj 537 216 sel 0;
#X obj 39 116 inlet;
#X obj 54 175 t b;
#X obj 168 349 bng 15 250 50 0 empty empty empty 17 7 0 10 -262144
-1 -1;
#X obj 792 1017 snapshot~;
#X obj 883 958 tgl 15 0 empty empty empty 17 7 0 10 -262144 -1 -1 0
1;
#X obj 883 978 metro 10;
#X floatatom 792 1039 5 0 0 0 - - -;
#X obj 215 179 * 1000;
#X connect 0 0 15 0;
#X connect 1 0 7 0;
#X connect 2 0 46 0;
#X connect 3 0 47 0;
#X connect 4 0 3 1;
#X connect 4 0 2 1;
#X connect 5 0 2 0;
#X connect 6 0 3 0;
#X connect 7 0 17 0;
#X connect 8 0 9 0;
#X connect 8 0 73 0;
#X connect 9 0 72 0;
#X connect 10 0 12 0;
#X connect 11 0 10 0;
#X connect 12 0 66 1;
#X connect 13 0 173 0;
#X connect 14 0 63 0;
#X connect 14 1 63 1;
#X connect 15 0 69 0;
#X connect 15 0 70 0;
#X connect 16 0 18 0;
#X connect 17 0 8 0;
#X connect 18 0 8 1;
#X connect 19 0 16 0;
#X connect 20 0 19 0;
#X connect 21 0 45 1;
#X connect 22 0 0 0;
#X connect 24 0 26 0;
#X connect 25 0 29 0;
#X connect 26 0 27 0;
#X connect 27 0 25 0;
#X connect 28 0 29 1;
#X connect 29 0 23 0;
#X connect 29 0 31 0;
#X connect 30 0 45 0;
#X connect 30 0 50 0;
#X connect 31 0 30 0;
#X connect 31 1 30 1;
#X connect 32 0 118 0;
#X connect 34 0 36 0;
#X connect 35 0 39 0;
#X connect 36 0 37 0;
#X connect 37 0 35 0;
#X connect 38 0 39 1;
#X connect 39 0 33 0;
#X connect 39 0 41 0;
#X connect 40 0 97 0;
#X connect 41 0 40 0;
#X connect 41 1 40 1;
#X connect 42 0 152 0;
#X connect 42 0 156 0;
#X connect 42 1 153 0;
#X connect 42 1 157 0;
#X connect 43 0 10 0;
#X connect 45 0 44 0;
#X connect 46 0 89 0;
#X connect 47 0 90 0;
#X connect 48 0 47 1;
#X connect 48 0 46 1;
#X connect 48 0 169 0;
#X connect 49 0 104 0;
#X connect 50 0 58 0;
#X connect 51 0 5 0;
#X connect 52 0 92 0;
#X connect 53 0 6 0;
#X connect 54 0 53 0;
#X connect 55 0 56 0;
#X connect 55 1 57 0;
#X connect 56 0 54 1;
#X connect 57 0 54 1;
#X connect 58 0 32 0;
#X connect 59 0 32 1;
#X connect 60 0 59 0;
#X connect 60 1 59 1;
#X connect 61 0 62 0;
#X connect 61 0 65 0;
#X connect 62 0 117 0;
#X connect 63 0 93 0;
#X connect 64 0 66 0;
#X connect 65 0 64 0;
#X connect 66 0 13 0;
#X connect 67 0 40 0;
#X connect 68 0 89 1;
#X connect 68 0 90 1;
#X connect 69 0 53 0;
#X connect 70 0 51 0;
#X connect 70 0 54 0;
#X connect 71 0 51 1;
#X connect 71 0 53 1;
#X connect 72 0 5 1;
#X connect 73 0 6 1;
#X connect 74 0 55 0;
#X connect 75 0 164 0;
#X connect 76 0 38 0;
#X connect 77 0 28 0;
#X connect 78 0 91 0;
#X connect 79 0 30 0;
#X connect 80 0 14 0;
#X connect 81 0 63 0;
#X connect 82 0 137 1;
#X connect 83 0 1 0;
#X connect 84 0 18 1;
#X connect 87 0 59 0;
#X connect 88 0 49 0;
#X connect 89 0 85 0;
#X connect 90 0 86 0;
#X connect 91 0 67 0;
#X connect 91 1 67 1;
#X connect 92 0 44 1;
#X connect 93 0 107 0;
#X connect 94 0 135 1;
#X connect 98 0 139 1;
#X connect 100 0 21 0;
#X connect 101 0 103 0;
#X connect 101 0 114 0;
#X connect 102 0 101 0;
#X connect 103 0 4 0;
#X connect 104 0 48 0;
#X connect 107 0 61 0;
#X connect 108 0 67 0;
#X connect 109 0 112 0;
#X connect 110 0 113 0;
#X connect 112 0 111 0;
#X connect 113 0 109 1;
#X connect 114 0 115 0;
#X connect 114 1 116 0;
#X connect 115 0 109 0;
#X connect 116 0 112 0;
#X connect 117 0 99 0;
#X connect 118 0 119 1;
#X connect 119 0 70 1;
#X connect 119 0 69 1;
#X connect 120 0 131 0;
#X connect 122 0 121 0;
#X connect 123 0 151 0;
#X connect 124 0 119 0;
#X connect 125 0 24 0;
#X connect 126 0 34 0;
#X connect 127 0 130 0;
#X connect 128 0 120 0;
#X connect 129 0 128 0;
#X connect 129 0 168 0;
#X connect 129 1 143 0;
#X connect 130 0 128 1;
#X connect 131 0 22 0;
#X connect 131 0 141 0;
#X connect 132 0 20 0;
#X connect 134 0 122 0;
#X connect 135 0 60 0;
#X connect 136 0 135 0;
#X connect 137 0 0 1;
#X connect 138 0 137 0;
#X connect 139 0 22 1;
#X connect 140 0 139 0;
#X connect 141 0 71 0;
#X connect 142 0 173 0;
#X connect 142 1 173 1;
#X connect 143 0 131 0;
#X connect 144 0 142 0;
#X connect 145 0 148 0;
#X connect 146 0 149 0;
#X connect 147 0 146 0;
#X connect 147 1 150 0;
#X connect 148 0 146 1;
#X connect 149 0 131 0;
#X connect 150 0 131 0;
#X connect 151 0 154 0;
#X connect 151 0 155 0;
#X connect 152 0 154 1;
#X connect 153 0 154 1;
#X connect 154 0 129 0;
#X connect 155 0 147 0;
#X connect 156 0 155 1;
#X connect 157 0 155 1;
#X connect 158 0 159 0;
#X connect 159 0 42 0;
#X connect 160 0 158 0;
#X connect 161 0 162 1;
#X connect 161 0 165 0;
#X connect 162 0 160 0;
#X connect 163 0 162 0;
#X connect 164 0 42 0;
#X connect 165 0 164 0;
#X connect 166 0 167 0;
#X connect 167 0 121 0;
#X connect 169 0 172 0;
#X connect 170 0 171 0;
#X connect 171 0 169 0;
#X connect 173 0 134 1;
