#N canvas 298 197 1265 831 10;
#X obj 145 245 wrap~;
#X obj 188 444 +~;
#X obj 182 371 *~;
#X obj 92 66 inlet~;
#X obj 215 420 samphold~;
#X obj 194 314 samphold~;
#X obj 208 255 sig~;
#X obj 330 289 samphold~;
#X obj 323 241 sig~;
#X obj 362 529 hsl 128 15 0 1 0 0 empty empty empty -2 -8 0 10 -262144
-1 -1 6350 1;
#X obj 142 873 *~;
#X obj 330 860 *~;
#X obj 585 760 line~;
#X obj 610 -3 loadbang;
#X obj 76 825 *~;
#X obj 298 800 *~;
#X obj 382 571 * 220.5;
#X obj 364 646 +~;
#X obj 297 712 expr~ 220.5-$v1;
#X obj 202 2 float \$1;
#X obj 201 -24 loadbang;
#X floatatom 202 24 5 0 0 0 - - -;
#X floatatom 173 148 5 0 0 0 - - -;
#X obj 288 11 t b f;
#X obj 495 610 samphold~;
#X obj 189 470 abs~;
#X obj 497 368 loadbang;
#X obj 495 407 metro 50;
#X floatatom 488 482 5 0 0 0 - - -;
#X obj 365 616 sig~;
#X obj 495 540 *;
#X obj 488 460 - 100;
#X obj 491 431 random 200;
#X obj 711 517 tgl 15 0 empty empty empty 17 7 0 10 -262144 -1 -1 1
1;
#X obj 167 345 *~;
#X obj 639 236 hsl 128 15 -1 1 0 0 empty empty empty -2 -8 0 10 -262144
-1 -1 6377 1;
#X obj 609 68 random 1000;
#X obj 608 43 metro 20;
#X obj 612 24 tgl 15 0 empty empty empty 17 7 0 10 -262144 -1 -1 1
1;
#X floatatom 610 138 5 0 0 0 - - -;
#X obj 598 460 sig~;
#X obj 611 95 / 1000;
#X obj 610 116 - 0.5;
#X floatatom 627 179 5 0 0 0 - - -;
#X obj 610 200 *;
#X obj 597 285 +;
#X obj 652 387 hsl 128 15 0 1 0 0 empty empty empty -2 -8 0 10 -262144
-1 -1 6404 1;
#X obj 612 256 t b f;
#X obj 601 434 *;
#X obj 805 -1 loadbang;
#X obj 836 236 hsl 128 15 -1 1 0 0 empty empty empty -2 -8 0 10 -262144
-1 -1 6350 1;
#X obj 804 70 random 1000;
#X obj 803 45 metro 20;
#X obj 807 26 tgl 15 0 empty empty empty 17 7 0 10 -262144 -1 -1 1
1;
#X floatatom 805 140 5 0 0 0 - - -;
#X obj 806 97 / 1000;
#X obj 805 118 - 0.5;
#X floatatom 822 181 5 0 0 0 - - -;
#X obj 805 202 *;
#X obj 912 292 +;
#X obj 807 258 t b f;
#X obj 936 395 * 1;
#X msg 954 340 1;
#X msg 992 342 -1;
#X obj 954 372 t b f;
#X obj 954 318 sel 0 1;
#X obj 916 -4 tgl 15 0 empty empty empty 17 7 0 10 -262144 -1 -1 0
1;
#X floatatom 100 438 5 0 0 0 - - -;
#X obj 152 -11 bng 15 250 50 0 empty empty empty 17 7 0 10 -262144
-1 -1;
#X obj 415 366 s;
#X obj 701 555 sel 1 0;
#X obj 651 627 * 2000;
#X obj 731 620 * 5000;
#X obj 636 669 f;
#X obj 707 669 f;
#X msg 590 719 1 \$1;
#X msg 712 714 0 \$1;
#X obj 465 317 spigot;
#X obj 726 934 *~;
#X obj 929 933 *~;
#X obj 747 855 line~;
#X obj 862 600 tgl 15 0 empty empty empty 17 7 0 10 -262144 -1 -1 0
1;
#X obj 857 638 sel 1 0;
#X obj 807 710 * 2000;
#X obj 887 703 * 5000;
#X obj 792 752 f;
#X obj 863 752 f;
#X msg 868 797 0 \$1;
#X floatatom 658 338 5 0 0 0 - - -;
#X obj 597 304 abs;
#X text 636 296 avoid negative numbers wrapping to end;
#X obj 96 368 * 8000;
#X obj 102 390 expr 8000-$f1;
#X obj 99 414 + 441;
#X obj 67 765 *~;
#X obj 404 232 loadbang;
#X obj 151 822 *~;
#X obj 169 790 *~;
#X obj 194 709 sel 1 2;
#X msg 192 739 1;
#X msg 227 739 0;
#X floatatom 309 414 15 0 0 0 - - -;
#X obj 598 348 clip 0 1;
#X floatatom 676 454 15 0 0 0 - - -;
#X floatatom 585 488 15 0 0 0 - - -;
#X obj 802 417 -;
#X obj 820 382 t b f;
#X floatatom 340 62 5 0 0 0 - - -;
#X obj 345 93 > \$1;
#X obj 356 41 *;
#X floatatom 249 114 5 0 0 0 - - -;
#X obj 249 93 expr 1 / $f1;
#X obj 176 125 *;
#X obj 249 70 + 0;
#X obj 133 216 +~;
#X obj 169 169 sig~;
#X obj 171 198 samphold~;
#X obj 789 -22 * 4;
#X obj 40 499 *~;
#X msg 85 459 \$1 20;
#X obj 85 481 line~;
#X obj 848 533 switch~;
#X obj 865 481 > \$1;
#X obj 860 510 tgl 15 0 empty empty empty 17 7 0 10 -262144 -1 -1 1
1;
#X obj 784 944 r singlegrainvolume;
#X obj 615 892 outlet;
#X obj 615 847 loadbang;
#X obj 986 181 spigot;
#X floatatom 944 416 5 0 0 0 - - -;
#X obj 976 114 f;
#X obj 1066 138 sel 1;
#X obj 131 659 tabread4~ poly_grain-R;
#X obj 103 627 tabread4~ poly_grain-L;
#X obj 38 531 tabread~ crown;
#X obj 288 747 tabread~ hann;
#X obj 405 741 tabread~ hann;
#X obj 193 688 r num_channels;
#X obj 651 586 r attack;
#X obj 740 586 r release;
#X obj 807 669 r attack;
#X obj 896 669 r release;
#X obj 871 559 r on_off;
#X obj 871 449 r numgrains;
#X obj 957 299 r reverse;
#X obj 1030 108 r on_off;
#X obj 824 160 r random_pitch;
#X obj 627 155 r offset_random;
#X obj 815 -79 r grain_pitch;
#X obj 886 -55 r pitch_range;
#X obj 958 -29 r randoms_on;
#X obj 956 8 r random_metro;
#X obj 594 -38 r sample_offset;
#X obj 281 -26 r numgrains;
#X obj 406 -18 r grains_playing;
#X obj 206 220 r grainsize;
#X obj 60 331 r grain_env;
#X obj 368 495 r global_pan;
#X obj 509 509 r random_panning;
#X obj 724 1001 throw~ grainoutL;
#X obj 918 998 throw~ grainoutR;
#X obj 749 349 r samplelength;
#X obj 958 555 inlet;
#X obj 763 -45 inlet;
#X obj 727 974 *~ 0.8;
#X obj 927 963 *~ 0.8;
#X floatatom 837 818 0 0 0 0 - - -;
#X obj 837 841 dbtorms;
#X obj 837 864 pack 0 50;
#X floatatom 837 885 5 0 0 0 - - -;
#X msg 746 802 100 \$1;
#X obj 746 887 dbtorms~;
#X obj 875 -32 t b f;
#X obj 407 260 symbol \$1-loc;
#X connect 0 0 7 1;
#X connect 0 0 5 1;
#X connect 0 0 4 1;
#X connect 0 0 24 1;
#X connect 0 0 34 0;
#X connect 0 0 118 0;
#X connect 1 0 25 0;
#X connect 2 0 1 0;
#X connect 3 0 114 0;
#X connect 3 0 116 1;
#X connect 4 0 1 1;
#X connect 5 0 2 1;
#X connect 6 0 5 0;
#X connect 7 0 34 1;
#X connect 8 0 7 0;
#X connect 9 0 16 0;
#X connect 10 0 78 0;
#X connect 11 0 79 0;
#X connect 12 0 11 1;
#X connect 12 0 10 1;
#X connect 13 0 38 0;
#X connect 14 0 10 0;
#X connect 15 0 11 0;
#X connect 16 0 29 0;
#X connect 17 0 18 0;
#X connect 17 0 135 0;
#X connect 18 0 134 0;
#X connect 19 0 21 0;
#X connect 20 0 19 0;
#X connect 21 0 112 1;
#X connect 22 0 115 0;
#X connect 23 0 109 0;
#X connect 23 1 109 1;
#X connect 24 0 17 1;
#X connect 25 0 131 0;
#X connect 25 0 132 0;
#X connect 26 0 27 0;
#X connect 27 0 32 0;
#X connect 28 0 30 0;
#X connect 29 0 17 0;
#X connect 30 0 24 0;
#X connect 31 0 28 0;
#X connect 32 0 31 0;
#X connect 33 0 70 0;
#X connect 33 0 77 1;
#X connect 34 0 2 0;
#X connect 36 0 41 0;
#X connect 37 0 36 0;
#X connect 38 0 37 0;
#X connect 39 0 44 0;
#X connect 40 0 4 0;
#X connect 41 0 42 0;
#X connect 42 0 39 0;
#X connect 43 0 44 1;
#X connect 44 0 35 0;
#X connect 44 0 47 0;
#X connect 45 0 77 0;
#X connect 45 0 88 0;
#X connect 45 0 89 0;
#X connect 47 0 45 0;
#X connect 47 1 45 1;
#X connect 48 0 40 0;
#X connect 48 0 104 0;
#X connect 49 0 53 0;
#X connect 51 0 55 0;
#X connect 52 0 51 0;
#X connect 53 0 52 0;
#X connect 54 0 58 0;
#X connect 55 0 56 0;
#X connect 56 0 54 0;
#X connect 57 0 58 1;
#X connect 58 0 50 0;
#X connect 58 0 60 0;
#X connect 59 0 61 0;
#X connect 60 0 59 0;
#X connect 60 1 59 1;
#X connect 61 0 8 0;
#X connect 61 0 128 0;
#X connect 62 0 64 0;
#X connect 63 0 64 0;
#X connect 64 0 61 0;
#X connect 64 1 61 1;
#X connect 65 0 62 0;
#X connect 65 1 63 0;
#X connect 66 0 53 0;
#X connect 66 0 38 0;
#X connect 67 0 119 0;
#X connect 68 0 19 0;
#X connect 70 0 73 0;
#X connect 70 1 74 0;
#X connect 71 0 73 1;
#X connect 72 0 74 1;
#X connect 73 0 75 0;
#X connect 74 0 76 0;
#X connect 75 0 12 0;
#X connect 76 0 12 0;
#X connect 77 0 69 0;
#X connect 78 0 163 0;
#X connect 79 0 164 0;
#X connect 80 0 170 0;
#X connect 81 0 82 0;
#X connect 82 0 85 0;
#X connect 82 1 86 0;
#X connect 83 0 85 1;
#X connect 84 0 86 1;
#X connect 85 0 169 0;
#X connect 86 0 87 0;
#X connect 87 0 165 0;
#X connect 87 0 80 0;
#X connect 89 0 102 0;
#X connect 91 0 92 0;
#X connect 92 0 93 0;
#X connect 93 0 67 0;
#X connect 94 0 14 0;
#X connect 95 0 172 0;
#X connect 96 0 15 0;
#X connect 97 0 96 0;
#X connect 98 0 99 0;
#X connect 98 1 100 0;
#X connect 99 0 97 1;
#X connect 100 0 97 1;
#X connect 101 0 106 0;
#X connect 102 0 46 0;
#X connect 102 0 48 0;
#X connect 105 0 48 1;
#X connect 105 0 103 0;
#X connect 106 0 105 0;
#X connect 106 1 105 1;
#X connect 107 0 108 0;
#X connect 107 0 113 0;
#X connect 108 0 33 0;
#X connect 109 0 107 0;
#X connect 110 0 112 0;
#X connect 111 0 110 0;
#X connect 112 0 22 0;
#X connect 113 0 111 0;
#X connect 114 0 0 0;
#X connect 115 0 116 0;
#X connect 116 0 114 1;
#X connect 117 0 59 0;
#X connect 118 0 133 0;
#X connect 119 0 120 0;
#X connect 120 0 118 1;
#X connect 122 0 123 0;
#X connect 123 0 121 0;
#X connect 124 0 163 1;
#X connect 124 0 164 1;
#X connect 126 0 125 0;
#X connect 129 0 127 0;
#X connect 130 0 129 0;
#X connect 131 0 96 0;
#X connect 132 0 94 0;
#X connect 132 0 97 0;
#X connect 133 0 94 1;
#X connect 133 0 96 1;
#X connect 134 0 14 1;
#X connect 135 0 15 1;
#X connect 136 0 98 0;
#X connect 137 0 71 0;
#X connect 138 0 72 0;
#X connect 139 0 83 0;
#X connect 140 0 84 0;
#X connect 142 0 122 0;
#X connect 143 0 65 0;
#X connect 144 0 127 1;
#X connect 144 0 130 0;
#X connect 145 0 57 0;
#X connect 146 0 43 0;
#X connect 148 0 171 0;
#X connect 149 0 66 0;
#X connect 150 0 52 1;
#X connect 150 0 37 1;
#X connect 150 0 27 1;
#X connect 151 0 45 0;
#X connect 152 0 23 0;
#X connect 153 0 109 0;
#X connect 154 0 6 0;
#X connect 154 0 101 0;
#X connect 155 0 91 0;
#X connect 156 0 9 0;
#X connect 157 0 30 1;
#X connect 160 0 105 0;
#X connect 161 0 81 0;
#X connect 162 0 117 0;
#X connect 163 0 158 0;
#X connect 164 0 159 0;
#X connect 165 0 166 0;
#X connect 166 0 167 0;
#X connect 167 0 168 0;
#X connect 169 0 165 0;
#X connect 169 0 80 0;
#X connect 170 0 78 1;
#X connect 170 0 79 1;
#X connect 171 0 117 0;
#X connect 171 1 117 1;
#X connect 172 0 69 1;
