#N canvas 41 23 1237 537 10;
#X obj 163 273 bng 15 250 50 0 defaults defaults_rcv defaults 17 7
0 10 -262144 -1 -1;
#N canvas 36 75 1369 803 autoplay 1;
#X floatatom 279 367 5 0 0 0 - - -;
#X obj 300 442 phasor~ 0.1;
#X obj 364 505 spigot;
#X obj 517 346 sel 1;
#X obj 376 371 f;
#X obj 302 565 spigot;
#X obj 163 399 - 1;
#X obj 163 421 abs;
#X obj 162 446 tgl 15 0 empty empty empty 17 7 0 10 -262144 -1 -1 1
1;
#X obj 222 375 sel 0;
#X obj 233 415 f;
#X floatatom 94 71 5 0 0 0 - - -;
#X obj 94 90 / 44.1;
#X floatatom 94 112 5 0 0 0 - - -;
#X floatatom 94 153 15 0 0 0 - - -;
#X obj 94 131 expr 1000/$f1;
#X obj 181 256 *;
#X obj 250 331 * 1;
#X obj 268 286 t b b;
#X obj 267 259 sel 0 1;
#X msg 301 313 1;
#X obj 325 285 t b b;
#X msg 358 312 -1;
#X obj 474 312 t f f;
#X obj 518 389 bng 15 250 50 0 empty empty empty 17 7 0 10 -262144
-1 -1;
#X floatatom 388 393 5 0 0 0 - - -;
#X obj 110 201 t b f;
#X obj 300 593 s sample_offset_rcv;
#X obj 403 159 r sample_offset;
#X obj 511 203 r autoplay_on_off;
#X obj 201 167 r autoplay_speed;
#X obj 267 238 r autoplay_reverse;
#X obj 167 342 r freeze;
#X obj 94 49 r samplelength;
#X floatatom 493 489 5 0 0 0 - - -;
#X floatatom 364 526 5 0 0 0 - - -;
#X obj 189 203 * 4;
#X obj 300 464 snapshot~;
#X obj 395 440 tgl 15 0 empty empty empty 17 7 0 10 -262144 -1 -1 0
1;
#X obj 395 460 metro 10;
#X connect 0 0 1 0;
#X connect 1 0 37 0;
#X connect 2 0 5 0;
#X connect 2 0 35 0;
#X connect 3 0 4 0;
#X connect 3 0 24 0;
#X connect 4 0 1 1;
#X connect 4 0 25 0;
#X connect 5 0 10 1;
#X connect 5 0 27 0;
#X connect 6 0 7 0;
#X connect 7 0 8 0;
#X connect 8 0 5 1;
#X connect 9 0 10 0;
#X connect 10 0 1 1;
#X connect 11 0 12 0;
#X connect 12 0 13 0;
#X connect 13 0 15 0;
#X connect 14 0 26 0;
#X connect 15 0 14 0;
#X connect 16 0 17 0;
#X connect 17 0 0 0;
#X connect 18 0 17 0;
#X connect 18 1 20 0;
#X connect 19 0 18 0;
#X connect 19 1 21 0;
#X connect 20 0 17 1;
#X connect 21 0 17 0;
#X connect 21 1 22 0;
#X connect 22 0 17 1;
#X connect 23 0 2 1;
#X connect 23 1 3 0;
#X connect 26 0 16 0;
#X connect 26 1 16 1;
#X connect 28 0 4 1;
#X connect 29 0 23 0;
#X connect 29 0 38 0;
#X connect 30 0 36 0;
#X connect 31 0 19 0;
#X connect 32 0 6 0;
#X connect 32 0 9 0;
#X connect 33 0 11 0;
#X connect 36 0 16 0;
#X connect 37 0 2 0;
#X connect 37 0 34 0;
#X connect 38 0 39 0;
#X connect 39 0 37 0;
#X restore 86 272 pd autoplay;
#X floatatom 503 193 5 0 0 0 - - -;
#X text 441 195 channels;
#X obj 379 120 loadbang;
#X msg 368 146 16;
#X obj 501 168 r num_channels_rcv;
#X obj 510 255 s num_channels;
#X obj 338 201 s numgrains;
#X msg 407 147 32;
#X text 93 223 number of instances of y_grain_stereo should equal the
numgrains (I recognise this is silly);
#X msg 337 146 10;
#X text 182 91 (some vestigial things in here to clean up);
#X obj 778 205 metro 1000;
#X obj 837 93 r grain_density;
#X msg 92 168 next 1;
#X obj 93 147 r mastergrainbang;
#X obj 838 150 * 1000;
#X obj 778 232 random 100;
#X floatatom 778 253 5 0 0 0 - - -;
#X obj 783 286 < 100;
#X obj 783 314 tgl 15 0 empty empty empty 17 7 0 10 -262144 -1 -1 1
1;
#X obj 783 334 sel 1;
#X obj 785 360 bng 15 250 50 0 empty empty empty 17 7 0 10 -262144
-1 -1;
#X obj 851 234 r grainplay_chance;
#X obj 851 261 * 100;
#X obj 1029 210 * 44100;
#X floatatom 1030 240 15 0 0 0 - - -;
#X obj 1024 140 r grain_size;
#X obj 1029 264 s grainsize;
#X floatatom 839 174 5 0 0 0 - - -;
#X obj 1029 172 + 0.01;
#X obj 778 123 r on_off;
#X obj 784 163 tgl 15 0 empty empty empty 17 7 0 10 -262144 -1 -1 1
1;
#X obj 778 181 change;
#X obj 431 286 catch~ grainoutL;
#X obj 543 290 catch~ grainoutR;
#X obj 482 380 dac~;
#X obj 441 344 *~;
#X obj 534 344 *~;
#X obj 555 317 r volume;
#X obj 431 455 rev2~ 105 100 75 20;
#X obj 534 491 dac~;
#X obj 570 454 rev2~ 105 100 75 20;
#X obj 437 430 *~;
#X obj 576 427 *~;
#X msg 581 371 \$1 10;
#X obj 581 394 line~;
#X obj 584 348 r \$0-reverb_on;
#X obj 678 347 tgl 15 0 empty empty empty 17 7 0 10 -262144 -1 -1 0
1;
#X obj 791 382 s mastergrainbang;
#X obj 846 330 r play_one_grain;
#X obj 90 190 clone y_grain_stereo 16;
#X connect 2 0 7 0;
#X connect 4 0 5 0;
#X connect 5 0 8 0;
#X connect 6 0 2 0;
#X connect 9 0 8 0;
#X connect 11 0 8 0;
#X connect 13 0 18 0;
#X connect 14 0 17 0;
#X connect 15 0 52 0;
#X connect 16 0 15 0;
#X connect 17 0 30 0;
#X connect 18 0 19 0;
#X connect 19 0 20 0;
#X connect 20 0 21 0;
#X connect 21 0 22 0;
#X connect 22 0 23 0;
#X connect 23 0 50 0;
#X connect 24 0 25 0;
#X connect 25 0 20 1;
#X connect 26 0 27 0;
#X connect 27 0 29 0;
#X connect 28 0 31 0;
#X connect 30 0 13 1;
#X connect 31 0 26 0;
#X connect 32 0 33 0;
#X connect 33 0 34 0;
#X connect 34 0 13 0;
#X connect 35 0 38 0;
#X connect 36 0 39 0;
#X connect 38 0 44 0;
#X connect 38 0 37 0;
#X connect 39 0 37 1;
#X connect 39 0 45 0;
#X connect 40 0 38 1;
#X connect 40 0 39 1;
#X connect 41 0 42 0;
#X connect 43 0 42 1;
#X connect 44 0 41 0;
#X connect 45 0 43 0;
#X connect 46 0 47 0;
#X connect 47 0 44 1;
#X connect 47 0 45 1;
#X connect 48 0 46 0;
#X connect 49 0 46 0;
#X connect 51 0 23 0;
#X coords 0 537 1 536 400 600 0;
