#N canvas 717 43 1280 773 10;
#X obj 163 508 bng 15 250 50 0 defaults defaults_rcv defaults 17 7
0 10 -262144 -1 -1;
#X floatatom 501 426 5 0 0 0 - - -;
#X text 441 425 channels;
#X obj 379 356 loadbang;
#X msg 379 378 16;
#X obj 501 404 r num_channels_rcv;
#X obj 505 457 s num_channels;
#X obj 337 405 s numgrains;
#X msg 407 383 32;
#X text 93 448 number of instances of y_grain_stereo should equal the
numgrains (I recognise this is silly);
#X msg 337 383 10;
#X text 182 327 (some vestigial things in here to clean up);
#X obj 778 399 metro 1000;
#X obj 853 286 r grain_density;
#X msg 93 405 next 1;
#X obj 93 383 r mastergrainbang;
#X obj 854 341 * 1000;
#X obj 778 443 random 100;
#X floatatom 778 465 5 0 0 0 - - -;
#X obj 778 486 < 100;
#X obj 779 522 tgl 15 0 empty empty empty 17 7 0 10 -262144 -1 -1 1
1;
#X obj 779 552 sel 1;
#X obj 785 591 bng 15 250 50 0 empty empty empty 17 7 0 10 -262144
-1 -1;
#X obj 851 460 r grainplay_chance;
#X obj 851 482 * 100;
#X obj 1029 460 * 44100;
#X floatatom 1024 495 15 0 0 0 - - -;
#X obj 1024 383 r grain_size;
#X obj 1030 523 s grainsize;
#X floatatom 854 363 5 0 0 0 - - -;
#X obj 1024 405 + 0.01;
#X obj 778 356 r on_off;
#X obj 778 378 tgl 15 0 empty empty empty 17 7 0 10 -262144 -1 -1 0
1;
#X obj 778 421 change;
#X obj 431 508 catch~ grainoutL;
#X obj 552 537 catch~ grainoutR;
#X obj 537 687 dac~;
#X obj 441 591 *~;
#X obj 543 570 *~;
#X obj 463 537 r volume;
#X obj 488 747 rev2~ 105 100 75 20;
#X obj 597 807 dac~;
#X obj 627 747 rev2~ 105 100 75 20;
#X obj 488 725 *~;
#X obj 627 725 *~;
#X msg 675 652 \$1 10;
#X obj 675 674 line~;
#X obj 675 630 r \$0-reverb_on;
#X obj 769 630 tgl 15 0 empty empty empty 17 7 0 10 -262144 -1 -1 0
1;
#X obj 791 630 s mastergrainbang;
#X obj 846 553 r play_one_grain;
#X obj 93 427 clone y_grain_stereo 16;
#X obj 360 725 writesf~ 2;
#X msg 183 665 start;
#X msg 231 665 stop;
#X obj 484 665 *~;
#X obj 537 665 *~;
#X obj 590 607 loadbang;
#X msg 586 630 1;
#X floatatom 644 577 5 0 1 0 monitor_volume - -;
#X msg 284 630 open anthem_2hrs.wav;
#X text 169 724 started at 1:33;
#X obj 235 591 r stop_recording;
#X obj 235 613 bng 15 250 50 0 empty empty empty 17 7 0 10 -262144
-1 -1;
#X msg 284 652 open speech_2hrs_2.wav;
#X connect 1 0 6 0;
#X connect 3 0 4 0;
#X connect 4 0 7 0;
#X connect 5 0 1 0;
#X connect 8 0 7 0;
#X connect 10 0 7 0;
#X connect 12 0 17 0;
#X connect 13 0 16 0;
#X connect 14 0 51 0;
#X connect 15 0 14 0;
#X connect 16 0 29 0;
#X connect 17 0 18 0;
#X connect 18 0 19 0;
#X connect 19 0 20 0;
#X connect 20 0 21 0;
#X connect 21 0 22 0;
#X connect 22 0 49 0;
#X connect 23 0 24 0;
#X connect 24 0 19 1;
#X connect 25 0 26 0;
#X connect 26 0 28 0;
#X connect 27 0 30 0;
#X connect 29 0 12 1;
#X connect 30 0 25 0;
#X connect 31 0 32 0;
#X connect 32 0 33 0;
#X connect 33 0 12 0;
#X connect 34 0 37 0;
#X connect 35 0 38 0;
#X connect 37 0 43 0;
#X connect 37 0 52 0;
#X connect 37 0 55 0;
#X connect 38 0 44 0;
#X connect 38 0 52 1;
#X connect 38 0 56 0;
#X connect 39 0 37 1;
#X connect 39 0 38 1;
#X connect 40 0 41 0;
#X connect 42 0 41 1;
#X connect 43 0 40 0;
#X connect 44 0 42 0;
#X connect 45 0 46 0;
#X connect 46 0 43 1;
#X connect 46 0 44 1;
#X connect 47 0 45 0;
#X connect 48 0 45 0;
#X connect 50 0 22 0;
#X connect 53 0 52 0;
#X connect 54 0 52 0;
#X connect 55 0 36 0;
#X connect 56 0 36 1;
#X connect 57 0 58 0;
#X connect 58 0 56 1;
#X connect 58 0 55 1;
#X connect 59 0 56 1;
#X connect 59 0 55 1;
#X connect 60 0 52 0;
#X connect 62 0 63 0;
#X connect 63 0 54 0;
#X connect 64 0 52 0;
#X coords 0 773 1 772 400 600 0;
